<?xml version="1.0" encoding="utf-8"?>
<!-- Generator: Adobe Illustrator 26.5.1, SVG Export Plug-In . SVG Version: 6.00 Build 0)  -->
<svg version="1.1" id="Laag_1" xmlns="http://www.w3.org/2000/svg" xmlns:xlink="http://www.w3.org/1999/xlink" x="0px" y="0px"
	 viewBox="0 0 226.8 226.8" enable-background="new 0 0 226.8 226.8" xml:space="preserve">
<g>
	<path fill="#A42C3C" d="M115.2,52.9c-4.4-5.5-13.3-14.5-21.9-22.9l-0.8-0.8C86,35.8,78,44.5,70.1,54.3c-9.2,11.3-17.9,24-24.4,36.8
		c-6.4,12.9-9.9,24.8-9.9,34.9c0,45.1,34.4,79.5,78,79.5c43.1,0,78-34.5,78-79.5c0-18.5-11.3-40-25.8-59.2c-5-6.6-10-12.4-14.4-17.2
		c-0.8,0.8-1.5,1.5-2,2c-0.6,0.6-0.8,0.9-0.8,0.9l0,0l-16.5,21.6L115.2,52.9L115.2,52.9z M14.6,126c0-58.7,78-126,78-126
		s13,12,24.8,23.8c5.7,5.7,11,11.4,14.5,15.8c3-3.9,10.4-10.3,15.5-14.6c3.1-2.6,5.4-4.4,5.4-4.4S213,74.4,213,126
		c0,56.6-44.2,100.8-99.2,100.8C58.1,226.8,14.6,182.5,14.6,126z"/>
	<path fill="#613150" d="M91,111.7H106c13.4-22,33.9-22.8,46.3-20.5c1.9,0.4,3.5,1.9,3.8,3.8c2.3,12.4,1.5,33-20.5,46.3v14.9
		c0,4.3-2.2,8.2-5.9,10.4l-14.8,8.8c-1.2,0.7-2.8,0.8-4,0s-2-2-2-3.5v-19.2c0-3.8-1.5-7.4-4.2-10.1c-2.7-2.7-6.3-4.2-10.1-4.2H75.3
		c-1.4,0-2.8-0.8-3.5-2s-0.7-2.8,0-4l8.8-14.8C82.8,114,86.8,111.7,91,111.7L91,111.7z M142.3,111.7c0-3.7-3-6.7-6.7-6.7
		c-3.7,0-6.7,3-6.7,6.7s3,6.7,6.7,6.7C139.3,118.4,142.3,115.4,142.3,111.7z M99.2,169c-5.7,5.7-16.8,6.9-23.1,7
		c-2.7,0.1-4.8-2-4.7-4.7c0.2-6.3,1.3-17.4,7-23.1c5.8-5.8,15.1-5.8,20.8,0C105,153.9,105,163.2,99.2,169z M91.4,162.9
		c1.9-1.9,1.9-5,0-6.9c-1.9-1.9-5-1.9-6.9,0c-1.7,1.7-2.2,4.8-2.3,6.9c-0.1,1.3,1,2.4,2.3,2.3C86.6,165.1,89.7,164.6,91.4,162.9
		L91.4,162.9z"/>
</g>
</svg>
